<svg xmlns="http://www.w3.org/2000/svg" viewBox="0 0 320 320" width="320" height="320">
  <rect width="320" height="320" fill="#000"/>
  <path d="M113.45,69.04C113.18,69.16 113.30,69.32 113.07,69.43C112.43,69.73 110.20,69.51 108.80,69.82C107.36,70.14 105.76,71.15 104.53,71.37C103.66,71.52 103.05,71.17 102.21,71.37C101.05,71.64 99.61,72.85 98.33,73.31C97.16,73.72 95.65,73.64 94.84,74.08C94.29,74.39 94.12,74.93 93.67,75.25C93.22,75.58 92.61,75.91 92.12,76.02C91.72,76.12 91.37,75.88 90.96,76.02C90.36,76.23 89.79,77.10 89.02,77.58C88.05,78.16 86.09,78.59 85.53,79.13C85.26,79.38 85.39,79.66 85.14,79.90C84.71,80.33 83.72,80.49 82.81,81.07C81.34,82.00 79.32,83.58 77.38,85.33C74.82,87.66 70.92,91.84 69.04,94.06C67.98,95.32 66.95,96.44 66.72,97.16C66.61,97.49 66.83,97.63 66.72,97.94C66.47,98.61 64.63,99.99 64.39,100.65C64.27,100.96 64.50,101.11 64.39,101.43C64.15,102.15 62.49,103.57 62.06,104.53C61.75,105.22 61.96,105.86 61.67,106.47C61.35,107.16 60.50,107.62 60.12,108.41C59.67,109.36 59.76,110.73 59.35,111.90C58.89,113.19 57.79,114.45 57.41,115.78C57.04,117.04 57.35,118.43 57.02,119.66C56.69,120.88 55.81,121.69 55.47,123.15C54.95,125.33 55.51,130.70 55.08,131.68C54.97,131.93 54.81,131.78 54.69,132.07C52.65,136.99 51.33,275.11 54.69,284.90C55.09,286.07 55.13,286.19 56.05,286.64C59.23,288.20 79.39,286.15 82.42,286.64C83.08,286.75 83.20,287.09 83.59,287.03C84.04,286.96 84.56,286.52 84.95,286.06C85.43,285.49 85.75,284.60 86.11,283.73C86.54,282.70 87.01,281.42 87.27,280.24C87.53,279.09 87.36,277.77 87.66,276.75C87.92,275.87 88.49,275.42 88.82,274.42C89.34,272.88 89.38,270.60 89.99,268.22C90.84,264.84 93.01,259.57 93.87,256.19C94.47,253.81 94.49,251.73 95.03,249.99C95.45,248.63 96.26,247.72 96.58,246.50C96.91,245.26 96.62,243.91 96.97,242.62C97.35,241.20 98.53,239.77 98.91,238.35C99.26,237.06 98.97,235.71 99.30,234.47C99.62,233.25 100.47,232.26 100.85,230.98C101.27,229.57 101.20,228.02 101.62,226.33C102.15,224.22 103.71,220.85 103.95,219.35C104.06,218.65 103.82,218.40 103.95,217.79C104.15,216.85 105.08,215.66 105.50,214.30C106.05,212.56 106.12,209.84 106.67,208.10C107.09,206.74 107.89,205.83 108.22,204.61C108.55,203.37 108.26,202.12 108.61,200.73C109.04,198.96 110.66,196.35 110.93,194.91C111.09,194.11 111.24,193.59 110.93,192.97C110.49,192.07 108.73,191.00 107.64,190.45C106.73,189.99 105.94,190.13 104.92,189.67C103.38,188.97 101.09,186.98 99.49,186.18C98.35,185.61 97.14,185.50 96.39,185.02C95.86,184.68 95.77,184.19 95.22,183.85C94.41,183.35 92.44,183.23 91.73,182.69C91.30,182.36 91.31,181.84 90.96,181.53C90.56,181.18 89.90,180.87 89.41,180.75C89.00,180.66 88.61,180.93 88.24,180.75C87.74,180.51 86.86,179.42 86.88,179.01C86.90,178.75 87.16,178.55 87.47,178.42C88.02,178.20 89.35,178.17 90.18,178.42C91.03,178.68 91.61,179.59 92.51,179.98C93.52,180.41 94.57,180.27 96.00,180.75C98.53,181.60 103.87,184.72 106.08,185.41C107.10,185.72 107.64,185.48 108.41,185.79C109.33,186.17 110.29,187.61 111.13,187.73C111.75,187.83 112.46,187.62 112.87,187.15C113.48,186.46 113.25,184.51 113.65,183.27C114.04,182.06 114.88,180.97 115.20,179.78C115.51,178.64 115.27,177.51 115.59,176.29C115.97,174.83 117.15,173.14 117.53,171.64C117.86,170.31 117.59,168.99 117.92,167.76C118.24,166.54 119.28,165.13 119.47,164.27C119.57,163.79 119.37,163.51 119.47,163.10C119.58,162.61 120.11,162.11 120.24,161.55C120.38,160.96 120.09,160.33 120.24,159.61C120.46,158.60 121.41,157.39 121.79,156.12C122.22,154.71 122.14,153.03 122.57,151.47C123.03,149.80 124.13,147.97 124.51,146.42C124.81,145.18 124.58,144.16 124.90,142.93C125.28,141.47 126.46,139.79 126.84,138.28C127.17,136.95 126.90,135.50 127.22,134.40C127.49,133.50 128.03,133.08 128.39,132.07C128.98,130.39 129.31,126.99 129.94,125.09C130.40,123.70 131.17,122.79 131.49,121.60C131.80,120.46 131.58,119.44 131.88,118.11C132.31,116.24 133.94,113.08 134.21,111.52C134.35,110.69 134.06,110.36 134.21,109.58C134.45,108.27 135.77,106.03 136.15,104.53C136.43,103.39 136.24,102.47 136.53,101.43C136.85,100.28 137.70,99.24 138.08,97.94C138.53,96.44 138.40,94.64 138.86,92.90C139.38,90.91 140.76,88.49 141.19,86.69C141.50,85.38 141.27,84.34 141.58,83.20C141.90,82.01 142.70,81.05 143.13,79.71C143.66,78.04 143.75,75.28 144.29,73.89C144.62,73.03 145.26,72.66 145.45,71.95C145.65,71.24 145.66,70.12 145.45,69.62C145.33,69.33 145.28,69.21 144.87,69.04C142.38,68.01 115.54,68.18 113.45,69.04Z" fill="#fff"/>
  <path d="M186.38,69.04C185.68,69.33 185.57,69.61 185.41,70.01C185.23,70.44 185.26,70.95 185.41,71.56C185.65,72.59 186.90,74.00 187.35,75.44C187.85,77.06 187.65,79.16 188.12,80.87C188.57,82.51 189.81,84.29 190.06,85.53C190.21,86.29 189.92,86.69 190.06,87.47C190.30,88.77 191.55,90.80 192.00,92.51C192.44,94.17 192.32,96.10 192.78,97.55C193.16,98.74 193.95,99.44 194.33,100.65C194.80,102.18 194.60,104.62 195.10,106.08C195.48,107.19 196.28,107.70 196.65,108.80C197.16,110.26 196.95,112.70 197.43,114.23C197.81,115.44 198.60,116.14 198.98,117.33C199.44,118.78 199.27,120.32 199.76,122.38C200.56,125.76 203.37,132.45 204.02,135.56C204.37,137.22 204.07,138.25 204.41,139.44C204.74,140.57 205.58,141.35 205.96,142.55C206.42,143.99 206.28,146.14 206.74,147.59C207.12,148.78 207.97,149.57 208.29,150.69C208.64,151.88 208.34,153.24 208.68,154.57C209.06,156.08 210.17,157.61 210.62,159.22C211.07,160.84 210.94,162.65 211.39,164.27C211.85,165.88 213.09,167.68 213.33,168.92C213.49,169.69 213.19,170.08 213.33,170.86C213.58,172.17 214.82,174.20 215.27,175.90C215.71,177.56 215.61,179.29 216.05,180.95C216.50,182.65 217.75,184.68 217.99,185.99C218.13,186.77 217.83,187.16 217.99,187.93C218.24,189.16 219.55,191.07 219.93,192.58C220.26,193.91 219.97,195.06 220.32,196.46C220.75,198.23 222.35,200.75 222.64,202.28C222.82,203.21 222.47,203.66 222.64,204.61C222.93,206.20 224.54,209.02 224.97,210.81C225.28,212.12 225.03,213.20 225.36,214.30C225.68,215.40 226.53,216.19 226.91,217.41C227.39,218.93 227.21,221.12 227.68,222.84C228.14,224.48 229.38,226.25 229.62,227.49C229.78,228.26 229.48,228.65 229.62,229.43C229.87,230.73 231.11,232.77 231.56,234.47C232.00,236.13 231.88,237.89 232.34,239.52C232.79,241.13 233.90,242.66 234.28,244.17C234.61,245.50 234.30,246.90 234.67,248.05C234.99,249.07 235.89,249.74 236.22,250.76C236.58,251.91 236.38,253.47 236.61,254.64C236.80,255.64 237.03,256.55 237.38,257.36C237.70,258.08 238.24,258.46 238.55,259.30C239.00,260.55 238.88,262.68 239.32,264.34C239.77,266.04 241.02,268.08 241.26,269.38C241.41,270.16 241.14,270.69 241.26,271.32C241.39,271.98 241.70,272.75 242.04,273.26C242.31,273.67 242.60,274.06 243.01,274.23C243.43,274.41 244.01,274.43 244.56,274.23C245.39,273.92 246.52,272.33 247.27,271.90C247.71,271.65 247.94,271.81 248.44,271.52C249.77,270.72 252.74,267.79 254.84,265.50C257.21,262.90 260.53,258.76 261.82,256.58C262.48,255.47 262.52,254.55 262.98,253.87C263.33,253.36 263.84,253.20 264.15,252.70C264.52,252.09 264.54,251.09 264.92,250.38C265.31,249.66 266.15,249.16 266.47,248.44C266.79,247.73 266.58,247.01 266.86,246.11C267.29,244.73 268.92,242.29 269.19,241.07C269.33,240.42 269.06,240.12 269.19,239.52C269.39,238.57 270.35,237.24 270.74,236.02C271.13,234.79 271.33,233.71 271.52,232.15C271.80,229.79 271.40,224.77 271.90,223.22C272.10,222.61 272.44,222.84 272.68,222.06C275.13,213.98 270.66,76.44 272.68,71.56C272.80,71.27 273.02,71.36 273.07,71.18C273.13,70.90 272.93,70.35 272.68,70.01C272.39,69.62 272.21,69.33 271.32,69.04C265.01,67.02 191.83,66.79 186.38,69.04Z" fill="#fff"/>
  <path d="M150.30,69.43C149.82,69.39 149.24,70.01 148.95,70.40C148.70,70.74 148.67,71.05 148.56,71.56C148.36,72.47 148.50,74.02 148.17,75.44C147.74,77.29 146.11,80.15 145.84,81.65C145.70,82.46 145.99,82.81 145.84,83.59C145.60,84.89 144.36,86.96 143.90,88.63C143.48,90.19 143.55,91.87 143.13,93.28C142.74,94.56 141.96,95.50 141.58,96.78C141.15,98.19 141.23,100.01 140.80,101.43C140.42,102.70 139.57,103.73 139.25,104.92C138.94,106.06 139.16,107.09 138.86,108.41C138.43,110.28 136.80,113.44 136.53,115.01C136.39,115.83 136.69,116.29 136.53,116.95C136.35,117.71 135.71,118.29 135.37,119.27C134.86,120.75 134.74,123.42 134.21,125.09C133.78,126.43 133.04,127.31 132.65,128.58C132.23,130.00 132.31,131.57 131.88,133.24C131.36,135.26 129.82,138.27 129.55,139.83C129.41,140.65 129.70,141.00 129.55,141.77C129.30,143.01 128.06,144.81 127.61,146.42C127.16,148.04 127.25,150.40 126.84,151.47C126.62,152.02 126.31,152.05 126.06,152.63C125.50,153.95 125.14,157.71 124.51,159.61C124.05,161.00 123.28,161.91 122.96,163.10C122.65,164.24 122.87,165.34 122.57,166.59C122.19,168.14 121.01,170.09 120.63,171.64C120.33,172.89 120.55,173.99 120.24,175.13C119.92,176.32 119.07,177.34 118.69,178.62C118.27,180.03 118.34,181.86 117.92,183.27C117.53,184.55 116.58,185.75 116.36,186.76C116.21,187.49 116.15,188.20 116.36,188.70C116.54,189.13 116.88,189.41 117.33,189.67C117.98,190.05 119.18,190.03 120.05,190.45C120.99,190.90 121.95,192.13 122.76,192.39C123.32,192.57 123.76,192.21 124.32,192.39C125.13,192.65 126.08,193.87 127.03,194.33C127.90,194.75 128.95,194.69 129.75,195.10C130.49,195.49 130.97,196.27 131.68,196.65C132.39,197.04 133.35,197.02 134.01,197.43C134.63,197.81 134.91,198.60 135.56,198.98C136.30,199.41 137.54,199.32 138.28,199.76C138.93,200.14 139.27,200.99 139.83,201.31C140.31,201.58 140.81,201.42 141.38,201.70C142.28,202.12 143.59,203.60 144.48,204.02C145.06,204.30 145.55,204.14 146.04,204.41C146.60,204.73 147.00,205.57 147.59,205.96C148.16,206.34 148.92,206.34 149.53,206.74C150.22,207.20 150.77,208.22 151.47,208.68C152.07,209.08 152.53,208.96 153.41,209.45C155.81,210.80 161.41,215.12 165.82,218.76C171.29,223.29 180.84,231.80 183.47,234.86C184.37,235.91 184.23,236.20 185.02,237.19C186.72,239.31 191.15,243.25 193.94,246.50C196.71,249.72 200.77,254.83 201.70,256.58C201.99,257.13 201.82,257.46 202.08,257.75C202.37,258.06 203.10,258.39 203.44,258.33C203.70,258.28 203.91,258.02 204.02,257.75C204.18,257.37 204.16,256.82 204.02,256.19C203.79,255.10 202.54,253.41 202.08,251.93C201.63,250.44 201.73,248.83 201.31,247.27C200.85,245.60 199.75,243.78 199.37,242.23C199.07,240.98 199.29,239.88 198.98,238.74C198.66,237.55 197.75,236.44 197.43,235.25C197.12,234.11 197.36,232.98 197.04,231.76C196.66,230.29 195.48,228.61 195.10,227.10C194.77,225.78 195.06,224.62 194.72,223.22C194.28,221.45 192.82,219.18 192.39,217.41C192.05,216.01 192.34,214.72 192.00,213.53C191.67,212.40 190.87,211.67 190.45,210.42C189.88,208.74 189.84,205.67 189.28,204.22C188.96,203.35 188.42,203.13 188.12,202.28C187.65,200.96 187.82,198.56 187.35,196.85C186.89,195.21 185.65,193.43 185.41,192.19C185.25,191.43 185.55,191.04 185.41,190.25C185.16,188.95 183.92,186.92 183.47,185.21C183.03,183.55 183.15,181.62 182.69,180.17C182.31,178.98 181.52,178.28 181.14,177.07C180.66,175.54 180.87,173.10 180.36,171.64C179.98,170.53 179.19,170.02 178.81,168.92C178.31,167.46 178.51,165.02 178.04,163.49C177.66,162.28 176.86,161.58 176.48,160.39C176.02,158.94 176.15,157.00 175.71,155.35C175.26,153.64 174.01,151.61 173.77,150.30C173.62,149.52 173.92,149.13 173.77,148.36C173.52,147.13 172.28,145.35 171.83,143.71C171.36,142.00 171.53,139.81 171.05,138.28C170.68,137.06 169.83,136.27 169.50,135.18C169.18,134.07 169.43,132.99 169.12,131.68C168.69,129.89 167.08,127.07 166.79,125.48C166.62,124.54 166.97,124.08 166.79,123.15C166.49,121.63 164.89,119.10 164.46,117.33C164.12,115.94 164.41,114.78 164.07,113.45C163.69,111.95 162.38,110.04 162.13,108.80C161.98,108.03 162.23,107.55 162.13,106.86C162.02,106.02 161.71,104.95 161.36,104.15C161.04,103.42 160.46,103.00 160.19,102.21C159.85,101.17 160.14,99.75 159.81,98.33C159.37,96.48 157.91,93.92 157.48,92.12C157.17,90.81 157.40,89.77 157.09,88.63C156.77,87.44 155.92,86.44 155.54,85.14C155.10,83.64 155.23,81.68 154.76,80.10C154.31,78.58 153.21,77.29 152.82,75.83C152.46,74.44 152.96,72.67 152.44,71.56C152.00,70.63 150.96,69.48 150.30,69.43Z" fill="#fff"/>
  <path d="M114.62,194.72C114.13,194.97 113.88,195.49 113.65,196.07C113.34,196.87 113.56,198.06 113.26,199.18C112.88,200.59 111.70,202.32 111.32,203.83C110.99,205.16 111.25,206.61 110.93,207.71C110.67,208.61 110.11,209.06 109.77,210.04C109.26,211.51 109.14,214.19 108.61,215.85C108.18,217.19 107.48,217.99 107.05,219.35C106.51,221.09 106.43,223.80 105.89,225.55C105.47,226.91 104.66,227.82 104.34,229.04C104.01,230.28 104.30,231.63 103.95,232.92C103.57,234.34 102.39,235.77 102.01,237.19C101.66,238.48 101.96,239.74 101.62,241.07C101.24,242.58 100.07,244.21 99.68,245.72C99.35,247.05 99.62,248.37 99.30,249.60C98.97,250.82 98.13,251.82 97.75,253.09C97.32,254.51 97.39,256.33 96.97,257.75C96.59,259.02 95.80,259.94 95.42,261.24C94.98,262.74 95.07,264.94 94.64,266.28C94.34,267.23 93.81,267.61 93.48,268.61C92.96,270.15 92.84,273.01 92.32,274.81C91.89,276.28 91.08,277.45 90.76,278.69C90.49,279.76 90.61,280.89 90.38,281.79C90.19,282.53 89.73,283.07 89.60,283.73C89.48,284.37 89.39,285.17 89.60,285.67C89.78,286.10 89.86,286.35 90.57,286.64C97.15,289.37 203.46,289.37 210.04,286.64C210.74,286.35 210.81,286.14 211.01,285.67C211.30,284.97 211.27,283.60 211.01,282.57C210.70,281.40 209.52,280.28 209.07,279.08C208.64,277.95 208.74,276.40 208.29,275.59C207.99,275.04 207.49,274.99 207.13,274.42C206.53,273.49 206.30,271.62 205.58,270.16C204.71,268.41 202.64,266.02 202.08,264.73C201.81,264.08 201.97,263.71 201.70,263.18C201.32,262.44 200.22,261.63 199.76,260.85C199.37,260.20 199.46,259.77 198.98,258.91C197.82,256.81 194.60,252.36 191.61,248.82C187.86,244.38 181.83,238.51 177.84,234.67C174.94,231.87 171.98,228.98 170.08,227.68C169.14,227.04 168.29,226.99 167.76,226.52C167.37,226.18 167.34,225.67 166.98,225.36C166.59,225.01 166.04,225.00 165.43,224.58C164.32,223.82 162.37,221.46 161.16,220.70C160.44,220.25 159.83,220.33 159.22,219.93C158.53,219.47 157.98,218.45 157.28,217.99C156.68,217.59 155.81,217.59 155.35,217.21C154.97,216.90 154.95,216.36 154.57,216.05C154.10,215.67 153.39,215.71 152.63,215.27C151.30,214.51 148.84,212.00 147.59,211.39C146.96,211.09 146.59,211.29 146.04,211.01C145.21,210.58 144.15,209.11 143.32,208.68C142.77,208.39 142.25,208.56 141.77,208.29C141.20,207.97 140.84,207.12 140.22,206.74C139.56,206.33 138.63,206.38 137.89,205.96C137.07,205.51 136.35,204.40 135.56,204.02C134.93,203.72 134.19,203.94 133.62,203.64C133.02,203.31 132.72,202.47 132.07,202.08C131.34,201.65 130.15,201.72 129.36,201.31C128.61,200.92 128.11,200.08 127.42,199.76C126.80,199.47 126.15,199.66 125.48,199.37C124.61,198.99 123.63,197.81 122.76,197.43C122.10,197.14 121.53,197.34 120.82,197.04C119.79,196.61 118.48,195.06 117.33,194.72C116.41,194.44 115.25,194.39 114.62,194.72Z" fill="#fff"/>
</svg>